<?xml version="1.0" encoding="utf-8"?>
<svg version="1.1" id="Layer_1" xmlns="http://www.w3.org/2000/svg" x="0" y="0" viewBox="0 0 2322.7 595.6" xml:space="preserve"><path class="st0" d="M761.9 438.6c-39.2 0-72.5-13.5-99.8-40.6s-41-60.2-41-99.4V14.7H692V166h45.6v60.4H692v72c0 19.3 6.8 35.6 20.5 49.1s30.1 20.2 49.4 20.2v70.9zM855.9 98.2c0 10.2-3.5 18.8-10.3 25.9-6.9 7.1-15.5 10.6-25.6 10.6-10.2 0-18.8-3.5-25.9-10.6-7-7-10.6-15.7-10.6-25.9s3.5-18.7 10.6-25.6c7-6.9 15.7-10.3 25.9-10.3 9.9 0 18.4 3.5 25.4 10.6 7 6.9 10.5 15.4 10.5 25.3zM855.4 438.6h-70.9L784 159h70.9zM1159.5 299c0 38.7-13.6 71.6-40.7 98.6s-60.3 40.5-99.5 40.5c-39.6 0-72.9-13.4-100.1-40.2-27.1-26.8-40.7-59.7-40.7-98.8 0-38.7 13.7-71.4 41-98.2s60.6-40.2 99.8-40.2c24.9 0 48 5.9 69.3 17.7l-.1-163.6h71V299zm-70.9.1c0-18.6-6.8-34.7-20.5-48.1-13.7-13.5-29.9-20.2-48.8-20.2-19.3 0-35.7 6.6-49.4 19.9-13.6 13.3-20.5 29.4-20.5 48.4s6.8 35.2 20.5 48.6c13.7 13.5 30.1 20.2 49.4 20.2 19.2 0 35.6-6.7 49.1-20.2 13.5-13.4 20.2-29.6 20.2-48.6zM1768.8 299.2c0 38.7-13.6 71.5-40.7 98.4s-60.3 40.4-99.5 40.4c-39.6 0-72.9-13.4-100.1-40.1-27.1-26.7-40.7-59.6-40.7-98.6 0-38.6 13.7-71.3 41-98.1 27.3-26.7 60.6-40.1 99.8-40.1 24.9 0 48 5.9 69.3 17.6l.7-163.3h70.2v283.8zm-70.9.1c0-18.6-6.8-34.6-20.5-48-13.7-13.4-29.9-20.2-48.8-20.2-19.3 0-35.7 6.6-49.4 19.9-13.6 13.3-20.5 29.3-20.5 48.3 0 18.9 6.8 35.1 20.5 48.6 13.7 13.4 30.1 20.1 49.4 20.1 19.2 0 35.6-6.7 49.1-20.1 13.4-13.4 20.2-29.6 20.2-48.6zM2073.4 298.9c0 39.1-13.6 72.4-40.7 99.6-27.1 27.3-60.3 40.9-99.5 40.9-39.6 0-72.9-13.5-100.1-40.6-27.1-27.1-40.7-60.4-40.7-99.9 0-39.1 13.6-72.3 41-99.3 27.3-27.1 60.6-40.6 99.8-40.6 39.2 0 72.4 13.6 99.5 40.6 27.1 27.1 40.7 60.2 40.7 99.3zm-70.9 0c0-18.8-6.8-35.1-20.5-48.7-13.7-13.6-29.9-20.4-48.8-20.4-19.3 0-35.7 6.7-49.4 20.1-13.7 13.4-20.5 29.7-20.5 48.9s6.8 35.6 20.5 49.2 30.1 20.4 49.4 20.4c19.2 0 35.6-6.8 49.1-20.4 13.4-13.5 20.2-29.9 20.2-49.1zM1464.1 299.9c0-38.6-13.6-71.3-40.7-98s-60.3-40.1-99.5-40.1-72.5 13.4-99.8 40.1-41 59.4-41 98c0 39 13.6 71.8 40.7 98.6 27.1 26.7 60.5 40.1 100.1 40.1 25.7 0 48.8-5.8 69.3-17.4v17.4h70.9V300.2v-.3zm-140.2 68.7c-19.3 0-35.7-6.7-49.4-20.1-13.7-13.4-20.5-29.6-20.5-48.6 0-18.9 6.8-35 20.5-48.3 13.7-13.3 30.1-19.9 49.4-19.9 18.9 0 35.2 6.7 48.8 20.2 13.7 13.4 20.5 29.4 20.5 48 0 18.9-6.7 35.1-20.2 48.6-13.5 13.4-29.8 20.1-49.1 20.1zM2310.3 351c0 16.8-5.6 32.1-16.8 45.8-22.4 27.4-54.3 40.5-95.6 39.5-16.5-.4-34.4-4-53.8-11s-35.3-15.8-47.5-26.3l39.4-50.9c18.9 17.9 39 26.8 60.4 26.8h1.6c8.8 0 16.6-1.6 23.6-4.7 9.1-4.2 13.7-10.1 13.7-17.9v-2.1c-1.1-8-6.5-13.8-16.3-17.3-3.9-.7-12.1-2.3-24.7-4.7-15.8-3.2-29.1-7-39.9-11.6-31.9-13.7-47.8-37.6-47.8-72 0-32.9 16.3-57.6 48.9-74.1 14.3-7.3 29.9-11.2 46.7-11.6 17.5-.3 35.7 2.6 54.6 8.9 21.7 7.4 37.1 17 46.2 28.9l-47.3 42.5c-12.3-12.6-25.6-18.9-39.9-18.9-22.4 0-33.6 7.4-33.6 22.1v1.1c0 7 9.1 13 27.3 17.9 1.4.4 13 2.6 34.7 6.8 44.1 8.4 66.2 35.5 66.2 81.1l-.1 1.7z" style="fill: rgb(253,253,253);"></path><path class="st1" d="M557.4 203.5c-27.1-26.8-60.3-40.1-99.5-40.1-39.6 0-72.9 13.3-100.1 39.9-17.6 17.3-29.5 37.2-35.7 59.7h-33.7c-6.2-22.3-18-42.2-35.6-59.5-27.1-26.7-60.3-40.1-99.5-40.1s-72.5 13.4-99.8 40.1-41 59.4-41 98c0 39 13.6 71.8 40.7 98.5s60.5 40.1 100.1 40.1c39.2 0 72.4-13.4 99.5-40.3 19.5-19.3 32-41.7 37.4-67.1h26.9V581H388V422c21.4 12.1 44.6 18.1 69.9 18.1 39.2 0 72.4-13.4 99.5-40.1 27.1-26.8 40.7-59.5 40.7-98.2s-13.6-71.5-40.7-98.3zM202.3 349.9c-13.5 13.4-29.9 20.1-49.1 20.1-19.3 0-35.7-6.7-49.4-20.1s-20.5-29.6-20.5-48.5 6.8-35 20.5-48.2c13.7-13.2 30.1-19.9 49.4-19.9 18.9 0 35.2 6.7 48.8 20.1 13.7 13.4 20.5 29.4 20.5 48 .1 18.9-6.7 35.1-20.2 48.5zm304.7.2c-13.5 13.3-29.9 19.9-49.1 19.9-19.3 0-35.7-6.7-49.4-19.9-13.7-13.3-20.5-29.4-20.5-48.4s6.8-35.1 20.5-48.4c13.7-13.3 30.1-19.9 49.4-19.9 19.2 0 35.6 6.6 49.1 19.9 13.5 13.3 20.2 29.4 20.2 48.4s-6.8 35.1-20.2 48.4z" style="fill: rgb(253,253,253);"></path></svg>