<?xml version="1.0" encoding="utf-8"?>
<!-- Generator: Adobe Illustrator 24.0.1, SVG Export Plug-In . SVG Version: 6.00 Build 0)  -->
<svg version="1.1" id="Capa_1" xmlns="http://www.w3.org/2000/svg" xmlns:xlink="http://www.w3.org/1999/xlink" x="0px" y="0px"
	 viewBox="0 0 600 250" style="enable-background:new 0 0 600 250;" xml:space="preserve">
<g id="_x2018_ëîé_x5F_2">
</g>
<g id="_x2018_ëîé_x5F_1">
	<path d="M566.6,63.7C535.5,16.4,491.6,15.7,445.1,15l-8.5-0.1c-1.4,0-2.9-0.1-4.3-0.1c-6.7,0-13.2,0.9-19.4,0.9H301.4H184.6
		c-7.7,0-15.9-1.1-24.5-0.9l-8.5,0.1c-46.5,0.8-90.4,1.3-121.7,48.7c-0.5,0.8-8.1,15.5-10.3,34.1h-3.4v14.9h2.9
		c0.3,11.2,1.7,19.2,4.8,30c14.1,48.6,42.1,79.1,78.8,87.1c10.8,2.4,20,2.4,28.7,2.4c0,0,0,0,0,0c33.5,0,63.4-13.8,96.8-51.1
		c32.8-36.6,41.8-75.9,39.4-102H329c-2.4,26.1,6.5,66.4,39.4,103.1c33.4,37.3,63.2,53.1,96.8,53.1c8.8,0,17.9-1.5,28.7-3.9
		c36.7-8,64.7-39.6,78.9-88.1c3.2-11,4.6-19.4,4.8-30.6h6.2V97.7H577C574.8,79.1,567.2,64.6,566.6,63.7z M217.2,170.3
		c-38.8,43.4-66.1,48.7-85.6,48.7l0,0c-7.7,0-15.8-0.8-25.6-2.9c-31.1-6.8-55.1-33.7-67.7-76.7c-11.6-40,3.7-66.3,4.2-67.2
		c26.8-40.7,63.2-41.4,109.3-42.2l8.6-0.2c1.3,0,2.7-0.1,4-0.1c43.7,0,72.6,14.7,81.5,24.6C254.9,64.6,263.5,118.7,217.2,170.3z
		 M339.7,44.4c-3.3,3.7-6.1,8.5-8,16h-66.5c-2-7.5-4.8-12.3-8.1-16c-6.9-7.8-19.5-15.5-36.4-21.2c18.3-0.6,39.1,2.9,42.5,6.9
		c3.6,4.1,38.2,3.9,38.2,3.9s31.6,0.3,35.2-3.8c3.4-3.9,21.8-7.4,39.8-6.9C359.3,28.9,346.6,36.6,339.7,44.4z M558.3,139.1
		c-12.5,43-36.5,70.5-67.7,77.3c-9.8,2.1-17.9,3.1-25.6,3.1c-19.5,0-46.8-5.6-85.6-48.9c-46.2-51.7-37.7-105.9-28.7-116
		c8.8-9.9,37.8-24.7,81.4-24.7c1.3,0,2.6,0,4,0l8.6,0.2c46.1,0.8,82.5,1.4,109.2,41.9C554.2,72.1,570.1,98.7,558.3,139.1z"/>
</g>
</svg>
