<?xml version="1.0" encoding="utf-8"?>
<!-- Generator: Adobe Illustrator 24.0.1, SVG Export Plug-In . SVG Version: 6.00 Build 0)  -->
<svg version="1.1" id="Capa_1" xmlns="http://www.w3.org/2000/svg" xmlns:xlink="http://www.w3.org/1999/xlink" x="0px" y="0px"
	 viewBox="0 0 600 250" style="enable-background:new 0 0 600 250;" xml:space="preserve">
<style type="text/css">
	.st0{fill:#353535;}
</style>
<g id="_x2018_ëîé_x5F_2">
</g>
<g id="_x2018_ëîé_x5F_1">
	<g>
		<path class="st0" d="M385.2,35.1c-36.8,8.7-55.9,9.7-85.3,9.7s-48.4-0.9-85.2-9.7S74.1,28.7,27.8,63.2v31.7
			c0,0,11.8-1.4,18.3,28.5s19.3,80.4,57,88.8c44.3,9.9,96.9,11,129.5-8.3c33.8-20,38.5-59.8,43.6-79.6s5.4-34,23.8-34
			c18.4,0,18.7,14.3,23.8,34s9.7,59.8,43.6,79.6c27.8,16.2,81.1,16.2,129.5,8.3c38.1-6.2,50.6-58.9,57-88.8
			c6.4-29.9,18.4-28.5,18.4-28.5V63.2C526.2,28.7,422,26.4,385.2,35.1z M243.3,173.1c-16.1,27.6-44.6,42.8-95.2,37.3
			s-59.8-19.3-72.7-40.9s-20.2-80-12-99.8c8.3-19.8,69.5-24.4,98-24.8c29-0.5,77.7,4.1,96.1,26.2
			C275.9,93.1,259.4,145.5,243.3,173.1z M524.3,169.5c-11,28.8-55.7,41.3-87.8,39.8c-43.8-2.1-59.2-4.6-80.7-32.6
			c-19.4-25.4-32.1-83.5-13.7-105.6c18.4-22.1,67.2-26.7,96.1-26.2c28.5,0.5,89.7,5.1,98,24.8C544.6,89.4,533.3,145.9,524.3,169.5z"
			/>
	</g>
</g>
</svg>
