<?xml version="1.0" encoding="utf-8"?>
<!-- Generator: Adobe Illustrator 24.1.3, SVG Export Plug-In . SVG Version: 6.00 Build 0)  -->
<svg version="1.1" xmlns="http://www.w3.org/2000/svg" xmlns:xlink="http://www.w3.org/1999/xlink" x="0px" y="0px"
	 viewBox="0 0 1920 1080" style="enable-background:new 0 0 1920 1080;" xml:space="preserve">
<style type="text/css">
	.st0{fill:#353535;}
	.st1{fill:none;}
	.st2{opacity:0.3;fill:url(#SVGID_1_);}
	.st3{opacity:0.3;fill:url(#SVGID_2_);}
	.st4{opacity:0.3;fill:url(#SVGID_3_);}
	.st5{opacity:0.3;fill:url(#SVGID_4_);}
	.st6{opacity:0.3;fill:url(#SVGID_5_);}
	.st7{opacity:0.3;fill:url(#SVGID_6_);}
	.st8{opacity:0.3;fill:url(#SVGID_7_);}
	.st9{opacity:0.3;fill:url(#SVGID_8_);}
	.st10{opacity:0.3;fill:url(#SVGID_9_);}
	.st11{opacity:0.3;fill:url(#SVGID_10_);}
	.st12{opacity:0.3;fill:url(#SVGID_11_);}
	.st13{opacity:0.3;fill:url(#SVGID_12_);}
	.st14{fill:#272525;}
</style>
<g id="_x2018_ëîé_x5F_2">
</g>
<g id="_x2018_ëîé_x5F_1">
	<path d="M1246.23,474.13c-33.46-50.74-80.58-51.44-130.47-52.29l-9.16-0.12c-1.55-0.03-3.08-0.12-4.6-0.12
		c-7.23,0-14.14,0.95-20.78,0.95H961.49H836.1c-8.29,0-17.04-1.13-26.26-0.93l-9.15,0.15c-49.89,0.85-97.01,1.36-130.61,52.32
		c-0.54,0.88-8.68,16.59-11.02,36.63h-3.68v16.03h3.16c0.32,12.02,1.78,20.56,5.17,32.21c15.15,52.14,45.21,84.89,84.64,93.46
		c11.64,2.53,21.44,2.59,30.84,2.59c0,0,0,0,0.01,0c36,0,68.03-14.81,103.87-54.85c35.17-39.28,44.86-81.43,42.3-109.49h65.71
		c-2.63,28.06,7.02,71.33,42.28,110.72c35.83,40.03,67.87,56.97,103.87,56.97c9.4,0,19.2-1.64,30.84-4.16
		c39.43-8.58,69.49-42.46,84.65-94.59c3.43-11.81,4.89-20.84,5.18-32.87h6.69v-16.03h-7.26
		C1254.96,490.7,1246.86,475.15,1246.23,474.13z M871.11,588.66c-41.69,46.56-71.01,52.32-91.9,52.32h0
		c-8.23,0-16.95-0.85-27.43-3.13c-33.4-7.26-59.2-36.17-72.63-82.39c-12.49-42.98,3.95-71.21,4.49-72.13
		c28.79-43.66,67.86-44.41,117.32-45.25l9.21-0.21c1.44-0.03,2.86-0.06,4.27-0.06c46.88,0,77.98,15.73,87.44,26.38
		C911.59,475.11,920.75,533.21,871.11,588.66z M1002.57,453.47c-3.52,3.97-6.51,9.17-8.61,17.19h-71.41
		c-2.11-8.02-5.11-13.23-8.65-17.21c-7.4-8.33-20.88-16.63-39.12-22.72c19.69-0.62,42,3.16,45.67,7.36
		c3.86,4.4,41.05,4.14,41.05,4.14s33.94,0.28,37.79-4.12c3.64-4.16,23.43-7.95,42.75-7.42
		C1023.64,436.78,1010.01,445.09,1002.57,453.47z M1237.31,555.14c-13.43,46.21-39.22,75.66-72.63,82.93
		c-10.49,2.28-19.2,3.34-27.43,3.34c-20.89,0-50.22-5.97-91.9-52.54c-49.65-55.46-40.48-113.67-30.78-124.58
		c9.47-10.65,40.56-26.49,87.43-26.49c1.42,0,2.83,0.01,4.28,0.04l9.2,0.17c49.46,0.84,88.53,1.5,117.18,44.95
		C1232.85,483.24,1249.92,511.77,1237.31,555.14z"/>
</g>
</svg>
