<?xml version="1.0" encoding="utf-8"?>
<!-- Generator: Adobe Illustrator 24.1.3, SVG Export Plug-In . SVG Version: 6.00 Build 0)  -->
<svg version="1.1" xmlns="http://www.w3.org/2000/svg" xmlns:xlink="http://www.w3.org/1999/xlink" x="0px" y="0px"
	 viewBox="0 0 1920 1080" style="enable-background:new 0 0 1920 1080;" xml:space="preserve">
<style type="text/css">
	.st0{fill:#353535;}
	.st1{fill:none;}
	.st2{opacity:0.3;fill:url(#SVGID_1_);}
	.st3{opacity:0.3;fill:url(#SVGID_2_);}
	.st4{opacity:0.3;fill:url(#SVGID_3_);}
	.st5{opacity:0.3;fill:url(#SVGID_4_);}
	.st6{opacity:0.3;fill:url(#SVGID_5_);}
	.st7{opacity:0.3;fill:url(#SVGID_6_);}
	.st8{opacity:0.3;fill:url(#SVGID_7_);}
	.st9{opacity:0.3;fill:url(#SVGID_8_);}
	.st10{opacity:0.3;fill:url(#SVGID_9_);}
	.st11{opacity:0.3;fill:url(#SVGID_10_);}
	.st12{opacity:0.3;fill:url(#SVGID_11_);}
	.st13{opacity:0.3;fill:url(#SVGID_12_);}
	.st14{fill:#272525;}
</style>
<g id="_x2018_ëîé_x5F_2">
</g>
<g id="_x2018_ëîé_x5F_1">
	<path d="M686.55,591.87c14.15,5.96,142.89,33.53,198.02,11.18c55.13-22.35,25.14-76.78,69.84-75.26
		c44.7-1.51,14.69,52.92,69.82,75.26c55.13,22.35,183.79-5.21,197.95-11.18c14.16-5.95,13.44-37.99,17.91-47.68
		c4.48-9.69,24.53-16.39,24.53-16.39v-51.4c-29.41-14.16-178.18-6.71-213.93,0c-35.76,6.7-94.12,20.12-94.12,20.12
		s-55.97-13.41-91.74-20.12c-35.75-6.71-188.44-14.16-209.44,0v51.4c0,0,14.5,6.7,18.97,16.39
		C678.83,553.88,672.4,585.92,686.55,591.87z M996.26,505.06c11.04-8.68,85.2-30.76,202.46-21.56c6.47,0.51,21.03,4.99,21.55,14.46
		c0.53,9.47,0.53,60.47-2.62,67.58c-3.16,7.1-5,22.87-70.47,31.81c-65.47,8.94-120.42,1.84-134.62-17.09
		C998.36,561.33,985.21,513.74,996.26,505.06z M688.62,497.96c0.53-9.47,15.1-13.95,21.56-14.46
		c117.28-9.21,191.42,12.88,202.46,21.56c11.05,8.68-2.1,56.27-16.3,75.21c-14.2,18.93-69.16,26.02-134.62,17.09
		c-65.48-8.94-67.31-24.72-70.47-31.81C688.09,558.44,688.09,507.43,688.62,497.96z"/>
</g>
</svg>
