<?xml version="1.0" encoding="utf-8"?>
<!-- Generator: Adobe Illustrator 24.1.3, SVG Export Plug-In . SVG Version: 6.00 Build 0)  -->
<svg version="1.1" xmlns="http://www.w3.org/2000/svg" xmlns:xlink="http://www.w3.org/1999/xlink" x="0px" y="0px"
	 viewBox="0 0 1920 1080" style="enable-background:new 0 0 1920 1080;" xml:space="preserve">
<style type="text/css">
	.st0{fill:#353535;}
	.st1{fill:none;}
	.st2{opacity:0.3;fill:url(#SVGID_1_);}
	.st3{opacity:0.3;fill:url(#SVGID_2_);}
	.st4{opacity:0.3;fill:url(#SVGID_3_);}
	.st5{opacity:0.3;fill:url(#SVGID_4_);}
	.st6{opacity:0.3;fill:url(#SVGID_5_);}
	.st7{opacity:0.3;fill:url(#SVGID_6_);}
	.st8{opacity:0.3;fill:url(#SVGID_7_);}
	.st9{opacity:0.3;fill:url(#SVGID_8_);}
	.st10{opacity:0.3;fill:url(#SVGID_9_);}
	.st11{opacity:0.3;fill:url(#SVGID_10_);}
	.st12{opacity:0.3;fill:url(#SVGID_11_);}
	.st13{opacity:0.3;fill:url(#SVGID_12_);}
	.st14{fill:#272525;}
</style>
<g id="_x2018_ëîé_x5F_2">
</g>
<g id="_x2018_ëîé_x5F_1">
	<path class="st14" d="M1263.9,480.22c0-2.05,0.32-6.46,0.67-10.71c0.55-6.62-3.6-12.71-9.97-14.64
		c-9.62-2.91-21.13-4.97-21.13-4.97c-41.99-18.21-113.55-7.92-113.55-7.92c-66.87,0.31-126.73,33.59-126.73,33.59
		c-8.71,4.17-29.29,5.16-33.14,5.31c-3.84-0.15-24.37-1.15-33.06-5.31c0,0-59.72-33.28-126.43-33.59c0,0-66.56-11.24-108.45,6.97
		c0,0-11.11,1.67-21.37,4.12c-8.99,2.15-15.36,10.16-15.36,19.41l1.26,8.74c0,0,1.78,8.7,3.38,11.9l3.83,9.13l2.82,4.24l14.77,44.42
		c0,0,14.51,50.55,58.05,74.72c0,0,27.56,17.27,65.46,15.7c0,0,42.91,0.94,78.93-27.63c0,0,27.25-22.6,40.09-56.51l12.84-32.86
		c0,0,3.41-17.61,23.24-17.98c19.88,0.37,23.3,17.98,23.3,17.98l12.87,32.86c12.87,33.91,40.19,56.51,40.19,56.51
		c36.1,28.57,79.12,27.63,79.12,27.63c37.99,1.57,65.62-15.7,65.62-15.7c43.64-24.17,58.19-74.72,58.19-74.72l14.81-44.42l1.84-5.43
		l4.26-10.07C1262.88,486.48,1263.9,480.22,1263.9,480.22z M921.14,515.34c-6.89,64.67-54.29,119.93-117.56,117.21
		c-75.69,2.51-114.85-66.14-116.3-131.02c-0.84-45.63,54.92-43.32,106.91-47.51C854.04,454.02,922.81,475.37,921.14,515.34z
		 M1116.88,632.55c-63.42,2.72-110.93-52.53-117.84-117.21c-1.67-39.98,67.26-61.32,127.25-61.32c52.12,4.19,108,1.88,107.16,47.51
		C1232,566.41,1192.75,635.06,1116.88,632.55z"/>
</g>
</svg>
