<?xml version="1.0" encoding="utf-8"?>
<!-- Generator: Adobe Illustrator 24.1.3, SVG Export Plug-In . SVG Version: 6.00 Build 0)  -->
<svg version="1.1" xmlns="http://www.w3.org/2000/svg" xmlns:xlink="http://www.w3.org/1999/xlink" x="0px" y="0px"
	 viewBox="0 0 1920 1080" style="enable-background:new 0 0 1920 1080;" xml:space="preserve">
<style type="text/css">
	.st0{fill:#353535;}
	.st1{fill:none;}
	.st2{opacity:0.3;fill:url(#SVGID_1_);}
	.st3{opacity:0.3;fill:url(#SVGID_2_);}
	.st4{opacity:0.3;fill:url(#SVGID_3_);}
	.st5{opacity:0.3;fill:url(#SVGID_4_);}
	.st6{opacity:0.3;fill:url(#SVGID_5_);}
	.st7{opacity:0.3;fill:url(#SVGID_6_);}
	.st8{opacity:0.3;fill:url(#SVGID_7_);}
	.st9{opacity:0.3;fill:url(#SVGID_8_);}
	.st10{opacity:0.3;fill:url(#SVGID_9_);}
	.st11{opacity:0.3;fill:url(#SVGID_10_);}
	.st12{opacity:0.3;fill:url(#SVGID_11_);}
	.st13{opacity:0.3;fill:url(#SVGID_12_);}
	.st14{fill:#272525;}
</style>
<g id="_x2018_ëîé_x5F_2">
</g>
<g id="_x2018_ëîé_x5F_1">
	<path class="st14" d="M1263.48,495.3l-1.93-0.67c-9.12-0.6-14.64-11.51-14.64-11.51l-4.06-5.76c-5.99-8.49-24.96-10.68-24.96-10.68
		c-29.75-4.99-82.74-5.38-82.74-5.38c-40.73-1.8-120.37,10.1-120.37,10.1c-17.31,3.75-53.53,4.61-55.67,4.66
		c-2.13-0.05-38.14-0.91-55.34-4.66c0,0-79.18-11.9-119.67-10.1c0,0-52.69,0.38-82.26,5.38c0,0-18.86,2.2-24.81,10.68l-4.04,5.76
		c0,0-5.49,10.91-14.56,11.51l-1.92,0.67c0,0-1.19,1.26-1.12,2.4l0.69,30.08c0,0,0.25,2.45,1.74,2.3l5.41,0.01
		c0,0,5.39-1.17,7.58,8.61c0,0,7.61,36.14,15.81,51.04c0,0,6.29,14.21,17.8,18.7c0,0,12.77,7.39,72.19,10.18c0,0,52.27,1.33,76.49-2
		c0,0,16.81-2.13,25.28-9.85c0,0,10.72-10.38,17.07-21.83c0,0,23.16-35.8,32.69-73.94l1.29-4.79c0,0,0.4-4.29,6.45-4.79l23.25-1.19
		l23.39,1.19c6.09,0.5,6.49,4.79,6.49,4.79l1.3,4.79c9.58,38.13,32.88,73.94,32.88,73.94c6.39,11.45,17.17,21.83,17.17,21.83
		c8.52,7.72,25.42,9.85,25.42,9.85c24.36,3.33,76.93,2,76.93,2c59.76-2.8,72.61-10.18,72.61-10.18c11.58-4.49,17.9-18.7,17.9-18.7
		c8.25-14.91,15.91-51.04,15.91-51.04c2.2-9.78,7.62-8.61,7.62-8.61l5.44-0.01c1.5,0.15,1.75-2.3,1.75-2.3l0.7-30.08
		C1264.68,496.56,1263.48,495.3,1263.48,495.3z M908.45,548.15c-9.47,22.35-24.4,53.6-39.5,59.59c-14.47,6.78-40.28,7.88-87.5,7.48
		c-34.35-2.51-59.49-3.14-75.69-10.28c-4.96-2.19-9.26-5.67-12.39-10.11c-9.31-13.2-14.68-34.65-18.45-59.55
		c-0.44-14.73-6.31-43.5,11.51-55.7c14.6-11.36,67.65-11.74,106.33-12.32c52.97,2.03,122.05,10.81,127.49,21.41
		C925.74,501.02,915.81,530.17,908.45,548.15z M935.47,498.03l-2.28,0.2c0,0-0.21-0.06-0.48-0.17l11.91-0.57l0,0L935.47,498.03z
		 M985.2,498.23l-2.3-0.2l-14.49-0.85c6.69-0.01,13.42,0.07,18.17,0.34C986.03,498.01,985.2,498.23,985.2,498.23z M1244.95,535.27
		c-3.78,24.91-9.18,46.35-18.55,59.55c-3.15,4.45-7.47,7.92-12.47,10.11c-16.29,7.15-41.57,7.78-76.13,10.28
		c-47.49,0.4-73.45-0.7-88-7.48c-15.19-6-30.2-37.24-39.73-59.59c-7.41-17.98-17.39-47.13-11.88-59.49
		c5.47-10.6,74.95-19.38,128.23-21.41c38.9,0.58,92.26,0.96,106.95,12.32C1251.3,491.77,1245.4,520.54,1244.95,535.27z"/>
</g>
</svg>
