<?xml version="1.0" encoding="utf-8"?>
<!-- Generator: Adobe Illustrator 24.1.3, SVG Export Plug-In . SVG Version: 6.00 Build 0)  -->
<svg version="1.1" xmlns="http://www.w3.org/2000/svg" xmlns:xlink="http://www.w3.org/1999/xlink" x="0px" y="0px"
	 viewBox="0 0 1920 1080" style="enable-background:new 0 0 1920 1080;" xml:space="preserve">
<style type="text/css">
	.st0{fill:#353535;}
	.st1{fill:none;}
	.st2{opacity:0.3;fill:url(#SVGID_1_);}
	.st3{opacity:0.3;fill:url(#SVGID_2_);}
	.st4{opacity:0.3;fill:url(#SVGID_3_);}
	.st5{opacity:0.3;fill:url(#SVGID_4_);}
	.st6{opacity:0.3;fill:url(#SVGID_5_);}
	.st7{opacity:0.3;fill:url(#SVGID_6_);}
	.st8{opacity:0.3;fill:url(#SVGID_7_);}
	.st9{opacity:0.3;fill:url(#SVGID_8_);}
	.st10{opacity:0.3;fill:url(#SVGID_9_);}
	.st11{opacity:0.3;fill:url(#SVGID_10_);}
	.st12{opacity:0.3;fill:url(#SVGID_11_);}
	.st13{opacity:0.3;fill:url(#SVGID_12_);}
	.st14{fill:#272525;}
</style>
<g id="_x2018_ëîé_x5F_2">
</g>
<g id="_x2018_ëîé_x5F_1">
	<path class="st14" d="M1231.51,493.96c-0.18-3.16-1.6-3.07-1.6-3.07l-3.44-0.69c-3.57-0.37-10.63-3.21-10.63-3.21
		c-6.32-2.47-12.6-8.34-12.6-8.34c-8.39-8.25-22.78-17.87-22.78-17.87c-28.6-21.82-67.1-20.9-67.1-20.9
		c-38.13-1.65-68.56,14.12-68.56,14.12c-29.51,14.3-51.44,38.96-51.44,38.96l-2.27,1.79c-2.7,2.15-8.11,2.47-8.11,2.47
		c-5,0.82-24.34,0.55-24.34,0.55v0.04c-1.58,0.02-19.26,0.24-23.99-0.55c0,0-5.36-0.32-8.03-2.47l-2.25-1.79
		c0,0-21.72-24.66-50.95-38.96c0,0-30.14-15.77-67.91-14.12c0,0-38.13-0.92-66.46,20.9c0,0-14.25,9.62-22.56,17.87
		c0,0-6.22,5.87-12.48,8.34c0,0-6.99,2.84-10.53,3.21l-3.4,0.69c0,0-1.41-0.09-1.59,3.07l-0.66,25.73v0.87c0,0,0.14,1.1,1.93,1.79
		c0,0,3.72,1.26,5.49,2.18c0,0,5.22,1.56,10.21,11.14c0,0,10.08,28.51,12.71,34.74c0,0,7.99,22.5,24.33,37.49
		c0,0,31.39,34.74,80.79,32.17c0,0,29.61,1.83,59.75-17.05c0,0,27.33-17.23,39.49-50.23c0,0,6.45-16.59,9.17-29.06
		c0,0,2.27-11.73,6.72-15.58c0,0,4.88-4.84,9.85-5.43c0,0,4.58-0.65,10.49-0.83v-0.03c5.9,0.18,10.47,0.82,10.47,0.82
		c5.02,0.6,9.95,5.43,9.95,5.43c4.49,3.85,6.78,15.58,6.78,15.58c2.75,12.47,9.26,29.06,9.26,29.06
		c12.28,33,39.87,50.23,39.87,50.23c30.43,18.88,60.32,17.05,60.32,17.05c49.88,2.57,81.57-32.17,81.57-32.17
		c16.5-14.99,24.57-37.49,24.57-37.49c2.66-6.23,12.83-34.74,12.83-34.74c5.04-9.58,10.31-11.14,10.31-11.14
		c1.79-0.92,5.55-2.18,5.55-2.18c1.81-0.69,1.95-1.79,1.95-1.79v-0.87L1231.51,493.96z M917.9,541.39
		c-1.82,52.16-44.78,90.84-99.68,90.84c-55.02-1.47-100.59-46.93-96.77-111.55c2.9-47.03,45.21-71.41,97.14-69.58
		C878.13,455.13,919.53,489.97,917.9,541.39z M1100.53,632.18c-55.43,0-98.81-38.68-100.64-90.84
		c-1.65-51.42,40.15-86.25,100.28-90.29c52.43-1.83,95.14,22.55,98.07,69.58C1202.09,585.25,1156.07,630.72,1100.53,632.18z"/>
</g>
</svg>
