<?xml version="1.0" encoding="utf-8"?>
<!-- Generator: Adobe Illustrator 24.1.3, SVG Export Plug-In . SVG Version: 6.00 Build 0)  -->
<svg version="1.1" xmlns="http://www.w3.org/2000/svg" xmlns:xlink="http://www.w3.org/1999/xlink" x="0px" y="0px"
	 viewBox="0 0 1920 1080" style="enable-background:new 0 0 1920 1080;" xml:space="preserve">
<style type="text/css">
	.st0{fill:#353535;}
	.st1{fill:none;}
	.st2{opacity:0.3;fill:url(#SVGID_1_);}
	.st3{opacity:0.3;fill:url(#SVGID_2_);}
	.st4{opacity:0.3;fill:url(#SVGID_3_);}
	.st5{opacity:0.3;fill:url(#SVGID_4_);}
	.st6{opacity:0.3;fill:url(#SVGID_5_);}
	.st7{opacity:0.3;fill:url(#SVGID_6_);}
	.st8{opacity:0.3;fill:url(#SVGID_7_);}
	.st9{opacity:0.3;fill:url(#SVGID_8_);}
	.st10{opacity:0.3;fill:url(#SVGID_9_);}
	.st11{opacity:0.3;fill:url(#SVGID_10_);}
	.st12{opacity:0.3;fill:url(#SVGID_11_);}
	.st13{opacity:0.3;fill:url(#SVGID_12_);}
	.st14{fill:#272525;}
</style>
<g id="_x2018_ëîé_x5F_2">
</g>
<g id="_x2018_ëîé_x5F_1">
	<path class="st14" d="M1232.17,462.1c0.08-5.75-3.89-7.1-3.89-7.1l-9.33-1.61c-69.43-5.75-147.91,0-147.91,0
		c-47.17,2.54-55.29,6.68-55.29,6.68c-4.48,1.18-12.17,8.2-12.17,8.2c-7.44,6.51-13.53,8.79-13.53,8.79
		c-8.47,3.66-22.47,3.97-28.73,3.91v-0.08c0,0-0.59,0.03-1.6,0.05c-1.01-0.02-1.6-0.05-1.6-0.05v0.08
		c-6.25,0.06-20.21-0.25-28.66-3.91c0,0-6.07-2.28-13.5-8.79c0,0-7.68-7.02-12.15-8.2c0,0-8.1-4.14-55.18-6.68
		c0,0-78.33-5.75-147.62,0l-9.31,1.61c0,0-3.97,1.35-3.88,7.1l0.84,18.43c0,0-0.17,2.71,2.45,4.56c0,0,6.07,3.8,8.77,8.62
		c0,0,3.54,4.82,4.98,14.2c0,0,4.47,27.98,8.35,43.54c0,0,6.58,30.1,14.68,42.95c0,0,7.09,16.23,25.31,22.77
		c0,0,25.62,12.06,71.36,11.89c0,0,37.64,2.37,61.1-16.57c0,0,13.16-9.64,23.46-31.45c0,0,7.76-16.4,13.5-34.66l6.3-19.5
		c0,0,3.26-11.27,8.21-14.32c0,0,5.09-5.31,22.59-5.52c17.53,0.21,22.63,5.52,22.63,5.52c4.96,3.04,8.23,14.32,8.23,14.32l6.31,19.5
		c5.75,18.26,13.53,34.66,13.53,34.66c10.31,21.81,23.5,31.45,23.5,31.45c23.5,18.94,61.22,16.57,61.22,16.57
		c45.83,0.17,71.5-11.89,71.5-11.89c18.26-6.54,25.36-22.77,25.36-22.77c8.12-12.85,14.71-42.95,14.71-42.95
		c3.89-15.55,8.37-43.54,8.37-43.54c1.44-9.38,4.99-14.2,4.99-14.2c2.71-4.82,8.79-8.62,8.79-8.62c2.62-1.86,2.45-4.56,2.45-4.56
		L1232.17,462.1z M876.4,608.1c-11.7,7.97-28.44,10.96-44.62,12.06c-14.48,0.99-29.04,0.39-43.39-1.73
		c-22.84-3.38-39.28-10.07-51.82-30.9c-13.16-23.45-17.04-55.62-18.9-83.92c-5.29-51.05,46.24-44.02,101.7-42.61
		c55.51,4.91,96.61,7.27,97.7,55.29C916.22,548.92,898.5,593.9,876.4,608.1z M1202.28,503.61c-1.86,28.3-5.75,60.47-18.94,83.92
		c-12.56,20.83-29.03,27.53-51.92,30.9c-14.39,2.12-28.97,2.71-43.48,1.73c-16.22-1.1-32.98-4.1-44.71-12.06
		c-22.15-14.2-39.9-59.18-40.75-91.81c1.1-48.02,42.27-50.38,97.89-55.29C1155.95,459.59,1207.57,452.56,1202.28,503.61z"/>
</g>
</svg>
