<?xml version="1.0" encoding="utf-8"?>
<!-- Generator: Adobe Illustrator 24.1.3, SVG Export Plug-In . SVG Version: 6.00 Build 0)  -->
<svg version="1.1" xmlns="http://www.w3.org/2000/svg" xmlns:xlink="http://www.w3.org/1999/xlink" x="0px" y="0px"
	 viewBox="0 0 1920 1080" style="enable-background:new 0 0 1920 1080;" xml:space="preserve">
<style type="text/css">
	.st0{fill:#353535;}
	.st1{fill:none;}
	.st2{opacity:0.3;fill:url(#SVGID_1_);}
	.st3{opacity:0.3;fill:url(#SVGID_2_);}
	.st4{opacity:0.3;fill:url(#SVGID_3_);}
	.st5{opacity:0.3;fill:url(#SVGID_4_);}
	.st6{opacity:0.3;fill:url(#SVGID_5_);}
	.st7{opacity:0.3;fill:url(#SVGID_6_);}
	.st8{opacity:0.3;fill:url(#SVGID_7_);}
	.st9{opacity:0.3;fill:url(#SVGID_8_);}
	.st10{opacity:0.3;fill:url(#SVGID_9_);}
	.st11{opacity:0.3;fill:url(#SVGID_10_);}
	.st12{opacity:0.3;fill:url(#SVGID_11_);}
	.st13{opacity:0.3;fill:url(#SVGID_12_);}
	.st14{fill:#272525;}
</style>
<g id="_x2018_ëîé_x5F_2">
</g>
<g id="_x2018_ëîé_x5F_1">
	<g>
		<path class="st0" d="M1016.52,454.86c-17.76,5.86-38.7,14.17-56.52,14.17s-38.77-8.32-56.52-14.17
			c-47.87-15.79-168.55-25.97-244.93-1.53l2.29,42.26c0,0,13.88-3.06,18.46,12.22c4.58,15.28,15.23,78.25,34.69,102.86
			c24.17,30.55,76.21,31.73,111.41,30.21c47.39-2.04,78.42-23.08,91.66-58.73c13.24-35.64,20.71-66.2,29.19-75.87
			c4.57-5.22,9.73-5.59,13.76-5.6c4.02,0.01,9.18,0.38,13.76,5.6c8.48,9.67,15.95,40.23,29.19,75.87
			c13.24,35.64,44.27,56.69,91.66,58.73c35.19,1.51,87.24,0.34,111.41-30.21c19.46-24.61,30.11-87.58,34.69-102.86
			s18.46-12.22,18.46-12.22l2.29-42.26C1185.07,428.89,1064.39,439.07,1016.52,454.86z M672.64,473.19c0-3,7.68-5.43,17.14-5.43
			c9.47,0,17.14,2.43,17.14,5.43c0,3-7.67,5.43-17.14,5.43C680.31,478.62,672.64,476.19,672.64,473.19z M895.84,582.16
			c-12.73,23.93-34.12,36.15-66.2,40.23s-70.44-2.21-89.79-13.75c-17.02-10.15-25.29-42.26-29.36-61.61
			c-4.07-19.35-11.2-61.1,8.66-74.85s69.79-14.76,102.86-12.73c24.95,1.53,78.93,8.15,89.11,27.5
			C921.3,506.29,906.14,562.79,895.84,582.16z M1209.51,547.03c-4.07,19.35-12.35,51.46-29.36,61.61
			c-19.35,11.54-57.71,17.82-89.79,13.75c-32.08-4.07-53.47-16.29-66.2-40.23c-10.3-19.37-25.46-75.87-15.28-95.22
			c10.18-19.35,64.16-25.97,89.11-27.5c33.07-2.03,83-1.02,102.86,12.73C1220.71,485.92,1213.59,527.68,1209.51,547.03z
			 M1230.22,478.62c-9.47,0-17.14-2.43-17.14-5.43c0-3,7.67-5.43,17.14-5.43c9.47,0,17.14,2.43,17.14,5.43
			C1247.36,476.19,1239.69,478.62,1230.22,478.62z"/>
	</g>
</g>
</svg>
