<?xml version="1.0" encoding="utf-8"?>
<!-- Generator: Adobe Illustrator 24.1.3, SVG Export Plug-In . SVG Version: 6.00 Build 0)  -->
<svg version="1.1" xmlns="http://www.w3.org/2000/svg" xmlns:xlink="http://www.w3.org/1999/xlink" x="0px" y="0px"
	 viewBox="0 0 1920 1080" style="enable-background:new 0 0 1920 1080;" xml:space="preserve">
<style type="text/css">
	.st0{fill:#353535;}
	.st1{fill:none;}
	.st2{opacity:0.3;fill:url(#SVGID_1_);}
	.st3{opacity:0.3;fill:url(#SVGID_2_);}
	.st4{opacity:0.3;fill:url(#SVGID_3_);}
	.st5{opacity:0.3;fill:url(#SVGID_4_);}
	.st6{opacity:0.3;fill:url(#SVGID_5_);}
	.st7{opacity:0.3;fill:url(#SVGID_6_);}
	.st8{opacity:0.3;fill:url(#SVGID_7_);}
	.st9{opacity:0.3;fill:url(#SVGID_8_);}
	.st10{opacity:0.3;fill:url(#SVGID_9_);}
	.st11{opacity:0.3;fill:url(#SVGID_10_);}
	.st12{opacity:0.3;fill:url(#SVGID_11_);}
	.st13{opacity:0.3;fill:url(#SVGID_12_);}
	.st14{fill:#272525;}
</style>
<g id="_x2018_ëîé_x5F_2">
</g>
<g id="_x2018_ëîé_x5F_1">
	<g>
		<path class="st0" d="M1045.18,450.13c-36.8,8.74-55.89,9.66-85.33,9.66c-29.44,0-48.38-0.92-85.18-9.66
			c-36.8-8.74-140.55-6.44-186.84,28.06v31.74c0,0,11.81-1.38,18.25,28.52c6.44,29.9,19.28,80.41,56.97,88.78
			c44.34,9.86,96.88,10.97,129.46-8.28c33.77-19.96,38.51-59.8,43.57-79.58c5.06-19.78,5.4-34.04,23.8-34.04
			c18.4,0,18.74,14.26,23.8,34.04c5.06,19.78,9.69,59.83,43.58,79.58c27.77,16.19,81.14,16.19,129.49,8.28
			c38.1-6.23,50.6-58.88,57.04-88.78c6.44-29.9,18.4-28.52,18.4-28.52V478.2C1186.17,443.69,1081.98,441.39,1045.18,450.13z
			 M903.27,588.14c-16.1,27.6-44.62,42.78-95.22,37.26c-50.6-5.52-59.8-19.32-72.68-40.94c-12.88-21.62-20.24-80.04-11.96-99.82
			c8.28-19.78,69.46-24.39,97.98-24.84c28.98-0.46,77.74,4.14,96.14,26.22C935.93,508.1,919.37,560.54,903.27,588.14z
			 M1184.33,584.46c-10.99,28.82-55.7,41.28-87.82,39.75c-43.81-2.08-59.21-4.59-80.65-32.59c-19.42-25.37-32.1-83.53-13.7-105.61
			c18.4-22.08,67.16-26.68,96.14-26.22c28.52,0.45,89.7,5.06,97.98,24.84C1204.57,504.42,1193.31,560.94,1184.33,584.46z"/>
	</g>
</g>
</svg>
