<?xml version="1.0" encoding="utf-8"?>
<!-- Generator: Adobe Illustrator 24.1.3, SVG Export Plug-In . SVG Version: 6.00 Build 0)  -->
<svg version="1.1" xmlns="http://www.w3.org/2000/svg" xmlns:xlink="http://www.w3.org/1999/xlink" x="0px" y="0px"
	 viewBox="0 0 1920 1080" style="enable-background:new 0 0 1920 1080;" xml:space="preserve">
<style type="text/css">
	.st0{fill:#353535;}
	.st1{fill:none;}
	.st2{opacity:0.3;fill:url(#SVGID_1_);}
	.st3{opacity:0.3;fill:url(#SVGID_2_);}
	.st4{opacity:0.3;fill:url(#SVGID_3_);}
	.st5{opacity:0.3;fill:url(#SVGID_4_);}
	.st6{opacity:0.3;fill:url(#SVGID_5_);}
	.st7{opacity:0.3;fill:url(#SVGID_6_);}
	.st8{opacity:0.3;fill:url(#SVGID_7_);}
	.st9{opacity:0.3;fill:url(#SVGID_8_);}
	.st10{opacity:0.3;fill:url(#SVGID_9_);}
	.st11{opacity:0.3;fill:url(#SVGID_10_);}
	.st12{opacity:0.3;fill:url(#SVGID_11_);}
	.st13{opacity:0.3;fill:url(#SVGID_12_);}
	.st14{fill:#272525;}
</style>
<g id="_x2018_ëîé_x5F_2">
</g>
<g id="_x2018_ëîé_x5F_1">
	<path d="M1126.83,459.05c-7.76,0.37-22.46,1.42-39.37,3.97c-13.68,1.56-27.89,4.51-41.08,9.03c-20.29,6.24-38.64,15.36-47.68,28.7
		c-11-5.23-29.27-9.78-38.09-9.78c-9.06,0-28.13,4.81-39,10.22c-11.87-18.02-40.59-28.44-68.44-34.43
		c-3.87-0.87-7.74-1.63-11.62-2.27c-20.58-3.63-39.25-5-48.36-5.43c-24.88-1.2-101.13-12.33-102.79-4.6
		c-1.66,7.74-4.3,21.1-0.99,24.42c3.31,3.32,14.95,40.95,17.17,45.93c0.89,2,3.72,3.25,6.78,4.04c0.17,1.44,0.37,2.82,0.56,4.12
		c0.24,1.62,0.47,3.14,0.57,4.57c0.11,2.82,1.33,28.76,6.3,36.83c0.4,0.65,1,2.02,1.68,3.59c6.04,13.93,22.08,50.94,94.15,54.1
		c1.97,0.09,3.92,0.13,5.82,0.13c78.91,0,100.84-70.23,102.4-89.37c0.36-4.45,0.38-7.97,0.16-11.57h4.58l-3.46-19.73
		c-0.35-1.27-0.79-1.89-1.29-5.49h35.79h34.6c-0.5,3.6-0.94,4.22-1.29,5.49l-3.46,19.73h3.05c-0.22,3.6-0.2,7.12,0.16,11.57
		c1.55,19.14,23.48,89.98,102.39,89.98c1.9,0,3.85-0.35,5.82-0.44c72.06-3.16,88.1-40.32,94.15-54.25c0.68-1.58,1.27-3.02,1.68-3.67
		c4.96-8.07,6.18-34.04,6.29-36.86c0.11-1.43,0.34-2.97,0.57-4.59c0.18-1.2,0.36-2.46,0.51-3.76c3.62-0.75,7.32-2.07,8.35-4.42
		c2.22-4.98,13.82-42.61,17.14-45.93c3.32-3.32,0.71-21.85-0.95-29.59C1227.97,441.54,1151.71,457.85,1126.83,459.05z
		 M917.62,541.01c-1.47,18.17-22.87,87.18-100.7,83.83c-67.55-2.96-82.29-36.96-87.83-49.75c-0.83-1.91-1.48-3.41-2.16-4.51
		c-3.01-4.88-4.8-23.11-5.24-33.46c-0.12-1.71-0.37-3.4-0.64-5.2c-0.09-0.61-0.18-1.23-0.27-1.88c1.33,0.11,2.2,0.14,2.2,0.14
		c0.21-26.85,26.62-44.86,52.88-49.59c39.81-7.19,100.62-1.25,128.27,24.18c7.66,7.05,12.53,20.28,13.6,23.37
		C918.01,532.21,917.99,536.52,917.62,541.01z M1197.43,531.91c-0.27,1.8-0.51,3.49-0.64,5.2c-0.43,10.35-2.23,28.58-5.24,33.46
		c-0.68,1.1-1.33,2.6-2.15,4.51c-5.55,12.79-20.29,46.8-87.83,49.75c-77.83,3.35-99.22-64.44-100.7-82.61
		c-0.34-4.24-0.38-7.38-0.15-10.99h1.35c0,0,5.12-17.25,13.82-25.26c27.64-25.43,88.46-31.98,128.26-24.79
		c26.26,4.73,52.67,22.43,52.87,49.29c0,0,0.24-0.17,0.65-0.19C1197.6,530.9,1197.51,531.34,1197.43,531.91z"/>
</g>
</svg>
