<?xml version="1.0" encoding="utf-8"?>
<!-- Generator: Adobe Illustrator 24.1.3, SVG Export Plug-In . SVG Version: 6.00 Build 0)  -->
<svg version="1.1" xmlns="http://www.w3.org/2000/svg" xmlns:xlink="http://www.w3.org/1999/xlink" x="0px" y="0px"
	 viewBox="0 0 1920 1080" style="enable-background:new 0 0 1920 1080;" xml:space="preserve">
<style type="text/css">
	.st0{fill:#353535;}
	.st1{fill:none;}
	.st2{opacity:0.3;fill:url(#SVGID_1_);}
	.st3{opacity:0.3;fill:url(#SVGID_2_);}
	.st4{opacity:0.3;fill:url(#SVGID_3_);}
	.st5{opacity:0.3;fill:url(#SVGID_4_);}
	.st6{opacity:0.3;fill:url(#SVGID_5_);}
	.st7{opacity:0.3;fill:url(#SVGID_6_);}
	.st8{opacity:0.3;fill:url(#SVGID_7_);}
	.st9{opacity:0.3;fill:url(#SVGID_8_);}
	.st10{opacity:0.3;fill:url(#SVGID_9_);}
	.st11{opacity:0.3;fill:url(#SVGID_10_);}
	.st12{opacity:0.3;fill:url(#SVGID_11_);}
	.st13{opacity:0.3;fill:url(#SVGID_12_);}
	.st14{fill:#272525;}
</style>
<g id="_x2018_ëîé_x5F_2">
</g>
<g id="_x2018_ëîé_x5F_1">
	<path d="M1232.18,505.54h-12.53c-5.14-33.48-16.07-63.18-66.61-70.86c-32.97-5-61.8-7.45-85.73-7.45c-21.3,0-15.19-2.58-27.87,1.44
		c0.94-1.84-22.02,0.7-25.7-0.45c-7.39-2.31-59.2-1.08-59.2-1.08s-49.6-1.21-56.99,1.1c-3.86,1.21-41.5-2.51-40.43-0.61
		c-12.76-4.2,7.96-0.31-13.8-0.31c-23.92,0-52.76,2.36-85.73,7.36c-50.53,7.67-61.47,37.38-66.6,70.86h-1.91v22.32h-0.94
		c-3.11,40.92,17.07,75.3,17.96,76.86l0.34,0.62c18.47,25.34,62.93,43.21,87.92,46.33c4.5,0.56,8.29,0.85,11.92,0.85
		c22.38,0,42.5-11.21,74.25-41.39c12.16-11.56,21.67-26.38,28.79-42.47c1.14-0.15,2.3-0.51,3.37-1.14
		c5.55-3.23,22.17-44.81,25.87-53.58c3.7-8.78,13.13-6.93,17.56-6.93s12.94-1.85,16.63,6.93c3.7,8.77,20.32,50.35,25.87,53.59
		c0.85,0.5,1.75,0.82,2.66,1.01c7.13,16.14,16.66,31.92,28.85,43.51c31.75,30.18,51.87,42.29,74.25,42.29c0,0,0,0,0.01,0
		c3.63,0,7.41-1.15,11.91-1.72c24.99-3.12,69.45-21.39,87.92-46.72l0.34-0.95c0.89-1.56,21.06-36.16,17.96-77.08h9.67V505.54z
		 M872.82,603.03c-33.57,31.91-50.35,38.32-66.54,38.32c-3.16,0-6.5-0.24-10.53-0.74c-22.31-2.79-63.54-19.15-80.07-41.5
		c-1.82-3.33-20.43-38.39-15.99-73.94l0.15-1.19c4.91-39.32,8.79-70.37,59.45-78.07c32.41-4.92,60.69-7.41,84.05-7.41
		c39.66,0,63.03,7.25,67.61,20.97C921.88,492.28,910.7,567.03,872.82,603.03z M1194.98,599.11c-16.53,22.35-57.76,37.76-80.07,40.55
		c-4.03,0.5-7.37-0.22-10.52-0.22c0,0,0,0-0.01,0c-16.19,0-32.97-5.46-66.54-37.37c-37.88-36-49.06-110.27-38.12-143.09
		c4.57-13.72,27.95-20.73,67.6-20.73c23.36,0,51.64,2.73,84.05,7.65c50.66,7.69,54.54,38.74,59.45,78.06l0.15,1.2
		C1215.41,560.72,1196.8,595.79,1194.98,599.11z"/>
</g>
</svg>
