<?xml version="1.0" encoding="utf-8"?>
<!-- Generator: Adobe Illustrator 24.1.3, SVG Export Plug-In . SVG Version: 6.00 Build 0)  -->
<svg version="1.1" xmlns="http://www.w3.org/2000/svg" xmlns:xlink="http://www.w3.org/1999/xlink" x="0px" y="0px"
	 viewBox="0 0 1920 1080" style="enable-background:new 0 0 1920 1080;" xml:space="preserve">
<style type="text/css">
	.st0{fill:#353535;}
	.st1{fill:none;}
	.st2{opacity:0.3;fill:url(#SVGID_1_);}
	.st3{opacity:0.3;fill:url(#SVGID_2_);}
	.st4{opacity:0.3;fill:url(#SVGID_3_);}
	.st5{opacity:0.3;fill:url(#SVGID_4_);}
	.st6{opacity:0.3;fill:url(#SVGID_5_);}
	.st7{opacity:0.3;fill:url(#SVGID_6_);}
	.st8{opacity:0.3;fill:url(#SVGID_7_);}
	.st9{opacity:0.3;fill:url(#SVGID_8_);}
	.st10{opacity:0.3;fill:url(#SVGID_9_);}
	.st11{opacity:0.3;fill:url(#SVGID_10_);}
	.st12{opacity:0.3;fill:url(#SVGID_11_);}
	.st13{opacity:0.3;fill:url(#SVGID_12_);}
	.st14{fill:#272525;}
</style>
<g id="_x2018_ëîé_x5F_2">
</g>
<g id="_x2018_ëîé_x5F_1">
	<path class="st14" d="M744.79,593.64c0,0,39.03,32.69,87.33,30.74c0,0,54.4,1.46,84.4-37.57c0,0,13.66-20.93,23.42-46.81
		c0,0,1.49-12.03,19.95-12.55c18.47,0.52,19.96,12.55,19.96,12.55c9.77,25.88,23.44,46.81,23.44,46.81
		c30.03,39.03,84.47,37.57,84.47,37.57c48.34,1.95,87.4-30.74,87.4-30.74c60.79-49.28,56.97-109.77,56.97-109.77
		c1.46-34.48-76.25-27.81-76.25-27.81c-75.19-1.22-162.35,38.22-162.35,38.22c-12.27,6.6-32.31,7.13-33.63,7.15
		c-1.33-0.03-21.35-0.55-33.61-7.15c0,0-87.09-39.44-162.22-38.22c0,0-77.66-6.67-76.19,27.81
		C687.87,483.87,684.05,544.36,744.79,593.64z M1100.17,473.38c59.12-6.83,101.36-8.05,100.3,31.79
		c0,62.24-49.44,107.01-111.73,107.01c-62.29,0-90.33-38.79-91.55-79.53C996.45,500.7,1046.5,484.35,1100.17,473.38z M819.72,473.38
		c53.63,10.98,103.64,27.32,102.9,59.28c-1.22,40.74-29.24,79.53-91.48,79.53c-62.24,0-111.64-44.77-111.64-107.01
		C718.45,465.33,760.65,466.55,819.72,473.38z"/>
</g>
</svg>
